<svg width="1920" height="450" fill="none" xmlns="http://www.w3.org/2000/svg"><mask id="a" style="mask-type:alpha" maskUnits="userSpaceOnUse" x="0" y="0" width="1920" height="450"><path fill="#E3F1E9" d="M0 0h1920v450H0z"/></mask><g mask="url(#a)"><path d="M818.109 110.842c-6.222-2.141-13.934-5.955-14.004-13.584-.04-5.177 2.93-9.951 4.357-14.808 2.743-9.344-.801-19.578-6.771-26.878-6.127-7.5-15.107-12.797-24.686-14.39-4.705-.79-9.568-.653-14.182.575-4.632 1.228-9.061 3.521-13.157 5.982-9.112 5.497-17.208 12.86-23.739 21.253-6.414 8.249-11.602 17.83-13.533 28.192-.884 4.783-1.085 9.789-.229 14.601 1.036 5.784 3.881 11.116 7.611 15.602 7.636 9.173 19.039 15.303 30.587 17.942 11.518 2.612 23.359-.378 31.711-8.867 4.362-4.434 7.274-9.883 10.1-15.358 1.436-2.771 3.138-5.729 6.283-6.75 3.097-1.011 6.286-.022 9.153 1.212 2.468 1.077 4.812 2.421 7.279 3.48.438.192.857.057 1.126-.346 1.192-1.852 2.615-3.523 3.357-5.633.345-1.007-1.274-1.379-1.618-.371-.672 1.938-2.108 3.525-3.201 5.233.382-.116.745-.231 1.127-.346-4.601-1.968-9.15-5.31-14.356-5.294-6.474.028-9.141 5.178-11.735 10.27-2.772 5.416-6.096 10.625-10.734 14.654-4.428 3.844-9.912 6.368-15.724 7.127-11.905 1.563-24.648-3.547-34.095-10.557-4.83-3.586-9.104-8.017-12.004-13.31-2.711-4.95-3.858-10.383-3.743-16.016.202-10.344 4.373-20.297 9.94-28.867 5.837-8.972 13.503-16.866 22.198-23.083 7.786-5.557 16.787-10.412 26.596-10.151 9.772.262 19.294 4.826 26.108 11.751 6.61 6.734 11.231 16.868 9.078 26.437-1.097 4.894-3.824 9.313-4.608 14.3-.845 5.44 1.742 10.329 6.19 13.429 2.709 1.887 5.793 3.123 8.899 4.18 1.064.361 1.426-1.267.419-1.611Z" fill="#D1D1D1"/><path d="M812.376 111.42c-3.527-1.598-7.205-2.9-10.582-4.813-1.645-.925-3.202-2.022-4.541-3.37-1.495-1.531-2.494-3.416-3.502-5.292-3.146-5.942-4.819-12.561-8.354-18.303-6.603-10.7-18.98-17.344-31.336-18.501-6.9-.645-13.875.48-20.092 3.591-.963.482-.082 1.892.871 1.42 11.242-5.612 24.914-4.168 35.683 1.822 5.728 3.191 10.691 7.723 13.99 13.425 3.288 5.675 4.927 12.116 8.068 17.87 1.934 3.548 4.199 6.257 7.686 8.383 3.563 2.16 7.544 3.528 11.328 5.24.972.439 1.763-1.024.781-1.472ZM793.553 106.616c-19.113-2.962-39.496-3.271-57.068-12.24-5.1-2.6-9.743-5.939-13.724-10.04-.738-.767-1.875.444-1.137 1.21 14.39 14.784 35.638 18.11 55.195 20.541 5.462.681 10.932 1.296 16.371 2.138 1.039.173 1.411-1.445.363-1.609Z" fill="#D1D1D1"/><path d="M784.032 96.347c-11.881-14.78-31.169-22.444-49.709-23.902-1.064-.088-1.003 1.573.052 1.653 17.88 1.403 36.776 8.845 48.236 23.102.656.835 2.076-.019 1.421-.853ZM767.736 92.713c-7.702-1.07-14.902-4.422-21.368-8.632-.892-.583-1.673.89-.781 1.472 6.571 4.273 13.943 7.694 21.776 8.778 1.048.145 1.439-1.474.373-1.618ZM787.384 113.381c-8.249 2.443-16.739 4.443-25.391 4.211-9.265-.259-17.802-3.389-25.977-7.564-5.701-2.91-11.505-6.39-14.903-11.986-.555-.922-1.975-.05-1.42.872 2.952 4.849 7.634 8.224 12.504 10.973 4.534 2.543 9.295 4.844 14.225 6.519 8.34 2.855 17.099 3.478 25.808 2.213 5.304-.78 10.497-2.101 15.627-3.627 1.024-.315.552-1.907-.473-1.611Z" fill="#D1D1D1"/><path d="M784.705 119.96c-5.975 6.675-13.823 11.426-22.672 13.034-10.064 1.815-20.276-.501-28.474-6.611-4.946-3.695-9.158-8.269-13.642-12.496-.774-.727-1.921.475-1.136 1.211 8.337 7.863 16.219 16.812 27.958 19.266 9.015 1.884 18.451.719 26.665-3.471 4.754-2.426 8.961-5.821 12.521-9.788.707-.812-.503-1.948-1.22-1.145Z" fill="#D1D1D1"/><path d="M758.51 124.93c-5.887.16-11.81-1.118-16.485-4.868-.829-.669-1.966.541-1.137 1.21 5.023 4.041 11.318 5.504 17.665 5.32 1.08-.025 1.027-1.696-.043-1.662ZM773.419 110.988c-7.173-.1-14.234-1.407-21.192-3.055-1.042-.249-1.414 1.37-.373 1.619 7.092 1.681 14.303 3.002 21.608 3.098 1.081.012 1.029-1.64-.043-1.662ZM736.919 102.547c-3.68-1.687-7.312-3.347-10.04-6.437-.711-.795-1.848.416-1.137 1.211 2.826 3.199 6.611 4.949 10.415 6.697.954.44 1.744-1.023.762-1.471ZM734.754 83.511c-3.447-1.45-6.717-3.244-10.174-4.684-.98-.41-1.761 1.061-.781 1.472 3.448 1.45 6.718 3.244 10.174 4.684.99.4 1.771-1.052.781-1.472ZM800.206 90.39c-1.899-7.834-3.249-16.117-8.294-22.675-5.309-6.898-13.2-11.9-21.619-13.971-4.896-1.207-9.979-1.477-14.994-1.064-1.068.09-1.016 1.743.052 1.653 11.332-.935 21.999 2.099 30.644 9.576 3.921 3.39 6.898 7.515 8.732 12.371 1.773 4.708 2.691 9.707 3.887 14.583.258 1.045 1.84.562 1.592-.473ZM800.687 68.244c-2.16-3.85-4.312-7.766-7.236-11.113-2.983-3.42-6.742-5.837-11.079-7.174-1.015-.315-1.387 1.304-.372 1.619 4.204 1.304 7.748 3.737 10.588 7.096 2.683 3.157 4.659 6.853 6.679 10.444.528.932 1.938.07 1.42-.872Z" fill="#D1D1D1"/><path d="M778.091 369.062c2.729-8.491 2.483-18.96-.548-27.333-2.092-5.762-6.877-13.269-14.129-11.661-6.352 1.416-8.995 9.047-8.895 14.824.122 6.49 1.989 13.361 5.353 18.937 1.657 2.749 3.895 5.446 6.87 6.857 3.123 1.488 6.417 1.188 9.497-.254 1.676-.782.158-3.211-1.502-2.446-11.044 5.146-16.439-13.045-17.211-20.647-.493-4.891.214-11.261 5.07-13.926 5.523-3.042 10.243 3.932 11.868 8.253 3.109 8.288 3.553 18.314.839 26.788-.561 1.735 2.227 2.374 2.788.608Z" fill="#E1D4DB"/><path d="M775.903 368.485c-3.5-5.766-5.118-12.435-6.922-18.871-.493-1.781-3.252-.949-2.744.816 1.877 6.661 3.615 13.568 7.235 19.541.94 1.573 3.403.086 2.431-1.486ZM756.467 376.082c-4.407-3.162-8.906-6.193-13.591-8.958-5.346-3.166-11.316-6.635-17.548-7.586-2.196-.335-4.641-.338-6.526 1.002-2.075 1.474-2.641 4.083-2.582 6.494.086 3.787 1.182 7.767 3.511 10.77 2.666 3.445 6.479 5.769 10.524 7.21 8.662 3.076 20.741 2.545 26.125-5.998.988-1.554-1.563-2.881-2.535-1.344-4.196 6.676-13.802 7.079-20.643 5.273-3.772-.997-7.456-2.823-10.168-5.651-2.443-2.546-3.584-5.877-3.903-9.349-.1-1.13-.138-2.327.2-3.423.206-.686.624-1.299 1.019-1.587 1.25-.93 3.132-.828 4.842-.51 5.553 1.005 10.797 4.012 15.612 6.805a175.382 175.382 0 0 1 11.518 7.389c.447.326.894.62 1.341.945.397.279.696.496.845.605 1.49 1.054 3.466-1.017 1.959-2.087Z" fill="#E1D4DB"/><path d="M754.257 377.4c-6.17-1.05-12.021-3.309-17.971-5.095-1.766-.526-2.407 2.263-.642 2.79 5.95 1.786 11.802 4.044 17.972 5.094 1.807.315 2.464-2.491.641-2.789ZM745.067 347.104c-1.171-7.411-2.674-15.573-7.525-21.572-2.964-3.662-7.371-7.359-12.127-8.244-2.036-.372-4.165-.11-5.739 1.333-1.81 1.66-2.28 4.234-2.401 6.569-.295 6.098 3.569 11.61 7.98 15.437 4.827 4.186 11.132 7.499 17.607 7.956 1.834.12 1.728-2.743-.089-2.847-4.722-.319-9.409-2.647-13.218-5.343-4.124-2.929-7.976-7.017-9.155-12.08-.747-3.182-.408-8.893 4.097-8.275 3.935.522 7.628 3.675 10.195 6.524 4.917 5.495 6.4 13.576 7.511 20.617.283 1.805 3.147 1.73 2.864-.075Z" fill="#E1D4DB"/><path d="M743.347 344.924c-3.904-3.664-7.383-7.715-11.286-11.38-1.335-1.253-3.311.818-1.959 2.087 3.904 3.665 7.382 7.715 11.286 11.38 1.351 1.268 3.31-.818 1.959-2.087Z" fill="#E1D4DB"/><path d="M927.372 400.265c26.481 11.675 64.063 15.049 87.148-5.608.63-.56.53-1.545.01-2.152-5.6-6.426-14.36-9.857-22.178-12.72-9.344-3.434-18.531-5.684-28.542-5.776-9.229-.089-17.396 1.724-25.631 5.935-4.128 2.1-8.07 4.558-11.941 7.087a387.565 387.565 0 0 0-5.166 3.461c-1.202.819-2.831 1.504-3.571 2.786-.437.756-.118 1.612.551 2.055 2.925 2.025 6.235 3.235 9.32 4.932 1.706.93 3.244-1.685 1.516-2.626-3.085-1.697-6.395-2.908-9.31-4.9l.551 2.056c.498-.862 2.935-1.976 3.898-2.624 1.61-1.089 3.24-2.164 4.859-3.219 3.496-2.269 7.064-4.467 10.788-6.352 7.942-4.044 15.771-5.66 24.671-5.536 9.292.125 17.768 2.245 26.445 5.377 7.549 2.706 16.16 5.997 21.58 12.206 0-.729.01-1.424.01-2.153-11.13 9.941-26.203 13.621-40.81 13.817-14.553.199-29.361-2.803-42.703-8.684-1.749-.758-3.286 1.856-1.495 2.638Z" fill="#DDD9DA"/><path d="M922.663 395.165c15.608-2.56 31.455-3.301 47.253-3.034 6.801.117 13.568-.095 20.37-.174 7.107-.072 14.454.077 21.194 2.625 1.82.686 2.59-2.257.77-2.943-6.5-2.436-13.601-2.755-20.454-2.734-7.299.017-14.56.308-21.861.183-16.081-.262-32.139.553-48.022 3.151-1.955.328-1.151 3.257.75 2.926Z" fill="#DDD9DA"/><path d="M1003.13 394.775c-16.297 3.454-32.861 7.282-49.632 5.641-1.935-.193-1.921 2.842.014 3.034 17.009 1.667 33.86-2.221 50.388-5.737 1.91-.406 1.13-3.324-.77-2.938ZM979.014 382.927c-9.561-1.065-18.946.185-28.386 1.627-1.931.286-1.127 3.216.783 2.918 9.22-1.402 18.327-2.56 27.63-1.531 1.932.246 1.896-2.8-.027-3.014ZM949.054 395.973c-4.084-.453-8.118-1.381-12.245-1.467-.825-.027-1.512.725-1.506 1.541-.007.836.704 1.499 1.541 1.506 4.128.086 8.162 1.014 12.246 1.466.821.083 1.515-.778 1.506-1.54-.024-.882-.732-1.403-1.542-1.506ZM900.689 372.672c29-1.525 63.857-15.525 75.197-44.393.332-.817-.406-1.579-1.085-1.859-8.017-3.256-17.602-2.29-25.95-1.282-9.225 1.119-17.811 3.026-26.262 7.028-8.483 4.012-15.241 9.16-20.9 16.68-2.907 3.869-5.438 8.011-7.865 12.214a592.016 592.016 0 0 0-3.209 5.656c-.743 1.336-1.89 2.691-1.972 4.241-.035.595.494 1.378 1.141 1.471 3.644.535 7.247.121 10.905.244 1.954.063 1.94-2.971-.014-3.034-3.375-.127-6.773.32-10.129-.132.384.501.758.97 1.141 1.471.059-.975 1.86-3.269 2.454-4.299.998-1.777 1.996-3.554 3.036-5.307 2.205-3.771 4.515-7.48 7.149-10.974 5.411-7.187 12.104-11.981 20.204-15.765 8.089-3.764 16.37-5.483 25.176-6.507 7.874-.917 16.812-1.78 24.33 1.271-.365-.631-.721-1.228-1.086-1.859-5.463 13.881-17.32 23.93-30.275 30.683-12.909 6.724-27.469 10.674-41.979 11.43-1.964.099-1.949 3.133-.007 3.022Z" fill="#DDD9DA"/><path d="M893.852 370.433c13.168-9.6 27.35-17.606 42.02-24.658 6.046-2.898 11.886-6.166 17.833-9.232 5.981-3.076 12.317-6.086 19.071-6.809 1.916-.211 1.922-3.233-.015-3.035-13.266 1.419-24.626 9.877-36.381 15.475-15.368 7.293-30.275 15.582-44.035 25.625-1.558 1.145-.052 3.78 1.507 2.634Z" fill="#DDD9DA"/><path d="M965.677 333.676c-12.864 10.336-25.836 21.199-41.38 27.242-1.804.696-1.033 3.634.783 2.917 16.078-6.239 29.421-17.307 42.741-27.996 1.52-1.224-.636-3.366-2.144-2.163ZM939.164 333.807c-9.032 3.359-16.841 8.629-24.644 14.182-1.58 1.133-.073 3.768 1.506 2.635 7.565-5.383 15.154-10.612 23.921-13.899 1.824-.684 1.042-3.602-.783-2.918ZM918.313 358.948c-3.972 1.489-8.101 2.524-11.942 4.369-.706.348-.975 1.398-.581 2.074.467.746 1.315.927 2.076.582a28.382 28.382 0 0 1 2.579-1.117c.968-.366 1.945-.698 2.922-1.031 1.908-.635 3.814-1.216 5.705-1.917.744-.271 1.344-1.017 1.067-1.849-.183-.751-1.015-1.399-1.826-1.111Z" fill="#DDD9DA"/><path d="M1298.95 80.285c5.75-8.15 10.93-17.871 11.34-28.018.39-9.623-4.75-17.6-13.28-21.957-7.77-3.966-16.92-5.235-25.57-5.563-9.67-.365-19.67.498-28.98 3.318-6.59 2.008-13.61 5.09-16.71 11.658-2.71 5.733-1.62 12.322.42 18.049 2.48 6.983 6.51 13.384 10.87 19.334 4.07 5.594 8.56 11.33 13.77 15.917 6.69 5.904 15.37 9.1 24.24 6.53 10.23-2.96 17.03-11.164 23.99-18.66.93-1.008-.48-2.632-1.43-1.616-5.9 6.372-11.53 13.316-19.68 16.944-7.02 3.135-14.59 2.607-21.11-1.397-5.92-3.661-10.49-9.359-14.79-14.747-4.18-5.257-8.07-10.827-11.11-16.83-2.76-5.43-5.18-11.698-4.52-17.922.7-6.43 5.28-10.613 10.98-13.143 7.88-3.514 16.8-4.845 25.32-5.256 8.83-.425 17.95.129 26.43 2.624 9.43 2.77 17.92 8.925 18.92 19.342 1.03 10.78-4.88 21.642-10.9 30.19-.8 1.155.99 2.344 1.8 1.204Z" fill="#D3CBCF"/><path d="M1299.05 80.909c1.73-1.972 3.85-3.788 6.49-4.293 2.19-.416 4.4.168 6.36 1.12 4.59 2.23 8.29 6.06 12.2 9.255 2.02 1.667 4.13 3.273 6.58 4.312.15-.683.29-1.382.43-2.08-10.76-1.819-24.64.194-31.55-10.11-.77-1.135-2.39.284-1.64 1.427 7.31 10.875 21.69 8.904 33.03 10.826 1.28.216 1.49-1.643.44-2.088-4.69-2.008-8.39-6.146-12.28-9.287-3.77-3.032-8.42-6.285-13.55-5.558-3.21.455-5.87 2.513-7.95 4.867-.91 1.032.5 2.656 1.44 1.609Z" fill="#D3CBCF"/><path d="M1298.33 82.042c5.45 5.819 9.75 13.614 8.11 21.822l1.68-.819c-3.66-2.17-6.2-5.97-7.86-9.802-1.65-3.833-2.69-8.446-1.31-12.535.43-1.32-1.6-2.01-2.03-.69-1.52 4.542-.52 9.57 1.27 13.872 1.79 4.264 4.67 8.55 8.74 10.939.75.435 1.52-.013 1.68-.819 1.75-8.739-2.84-17.212-8.63-23.402-.97-.999-2.61.428-1.65 1.434Z" fill="#D3CBCF"/><path d="M1299.07 80.04c4.76-12.1 19.25-17.116 30.74-11.587-.12-.608-.25-1.216-.35-1.816-2.15 2.061-4.08 4.34-6.24 6.385-2.04 1.947-4.39 3.992-7.29 4.318-1.39.16-.99 2.254.39 2.117 6.19-.688 10.45-7.249 14.58-11.211.63-.611.39-1.466-.34-1.817-12.6-6.044-28.33-.17-33.5 12.928-.53 1.289 1.5 1.979 2.01.683ZM1302.94 48.48c-1.49-1.147-3.35-1.46-5.15-1.825-.25-.048-.6.103-.79.27-.19.169-.35.46-.36.729-.01.292.06.585.27.786.21.224.44.303.73.35-.06-.007-.3-.063 0 0 .06.009.13.033.19.04.11.025.23.04.34.065.22.047.45.087.67.15.39.095.79.19 1.17.308.18.047.35.118.52.188.07.039.17.07.24.11.05.015.1.03.13.054.17.086-.26-.125-.08-.04.34.18.64.374.94.592.44.34 1.22.17 1.51-.313.29-.506.15-1.106-.33-1.463ZM1293.07 66.96c-1.02-.208-2-.591-2.94-1.028-.06-.031-.1-.047-.16-.078.14.07.08.039-.02-.008-.12-.055-.23-.117-.35-.171-.23-.117-.47-.25-.68-.374-.48-.265-.96-.545-1.45-.825-.48-.28-1.18-.223-1.5.313-.29.467-.23 1.182.31 1.494 1.92 1.104 3.89 2.263 6.09 2.717.31.063.54.08.82-.056.24-.114.48-.366.55-.612.14-.506-.09-1.254-.67-1.373ZM1277.13 87.104l-.65-.028c-.1-.008-.2-.016-.31-.04-.06-.008-.1-.024-.17-.032-.04 0-.21-.048-.02-.008s.02-.007-.02-.008c-.06-.008-.11-.023-.17-.032-.11-.023-.23-.063-.33-.086-.2-.056-.4-.134-.59-.212-.1-.047-.19-.078-.29-.125-.15-.078 0 0 .07.023-.05-.03-.1-.046-.15-.077-.19-.102-.38-.218-.57-.335-.19-.117-.38-.256-.55-.38-.1-.086-.19-.155-.29-.24-.07-.063-.18-.202 0 .015-.04-.054-.1-.085-.14-.14-.21-.201-.44-.34-.73-.35-.26-.025-.6.08-.79.27-.38.375-.54 1.104-.11 1.523.83.759 1.74 1.388 2.78 1.833.9.383 1.88.574 2.85.58.56.012 1.14-.384 1.17-.991.01-.561-.39-1.148-.99-1.16ZM1285.83 52.37c-1.69-.703-3.44-1.414-5.32-1.434-.57-.012-1.14.384-1.17.991-.03.546.38 1.148.98 1.16.45-.005.88.052 1.32.124.04 0 .08.016.13.032-.29-.033-.11-.024-.05-.016l.33.072c.21.047.42.118.62.173.84.26 1.64.596 2.44.931.51.227 1.22-.137 1.37-.667.19-.59-.09-1.123-.65-1.365ZM1274.86 68.927c-1.61-.326-3.14-1.013-4.64-1.653-.53-.22-1.23.138-1.37.667-.18.583.11 1.131.66 1.358 1.5.625 3.03 1.312 4.64 1.654.3.063.54.08.82-.056.23-.114.47-.366.55-.612.08-.268.08-.576-.05-.815-.12-.232-.34-.487-.61-.543ZM1278.2 38.064c-2.84-.58-5.61-1.484-8.46-2.064-.55-.112-1.2.069-1.37.667-.16.499.07 1.246.67 1.358 2.84.58 5.61 1.483 8.45 2.064.56.111 1.2-.069 1.37-.667.15-.492-.08-1.239-.66-1.358ZM1266.95 54.565c-1.49-.287-3.02-.266-4.51-.553-.25-.048-.6.103-.79.271-.19.168-.35.46-.36.728-.01.292.06.585.27.786.21.225.44.303.73.351 1.49.287 3.02.267 4.51.554.25.047.6-.104.79-.272.19-.168.35-.459.36-.728.01-.292-.06-.585-.27-.786-.22-.217-.44-.303-.73-.35ZM1258.48 77.005c-1.9-1.097-3.9-2.033-5.71-3.29-.46-.327-1.2-.178-1.5.312-.31.513-.21 1.152.3 1.494 1.83 1.25 3.81 2.194 5.71 3.29.48.28 1.19.224 1.5-.312.27-.475.21-1.19-.3-1.494ZM1258.03 44.248c-1.94-.39-3.78-1.118-5.73-1.523-.3-.064-.54-.08-.82.056-.23.114-.47.366-.55.611-.16.499.07 1.246.67 1.358 1.94.39 3.78 1.117 5.73 1.523.3.063.54.08.82-.056.23-.114.47-.366.54-.612.15-.49-.08-1.238-.66-1.357ZM1251.69 62.443a108.13 108.13 0 0 0-5.58-2.206c-.53-.18-1.22.114-1.37.667-.17.56.1 1.154.66 1.358 1.89.666 3.74 1.424 5.58 2.206.53.219 1.22-.138 1.37-.668.18-.583-.11-1.13-.66-1.357ZM1240.23 45.934c-1.64-.687-3.26-1.367-4.89-2.063-.53-.219-1.22.138-1.37.668-.18.583.11 1.13.66 1.357 1.63.696 3.27 1.368 4.9 2.063.53.22 1.22-.137 1.37-.667.18-.568-.1-1.116-.67-1.358ZM1246.1 35.44c-.44.005-.88-.052-1.32-.124-.04 0-.08-.016-.13-.032.29.033.11.024.05.016-.11-.024-.22-.048-.32-.072-.22-.047-.43-.118-.63-.173-.84-.26-1.64-.595-2.44-.931-.53-.22-1.22.137-1.36.667-.18.583.1 1.131.66 1.358 1.69.703 3.44 1.415 5.32 1.435.56.012 1.14-.384 1.17-.992 0-.553-.41-1.156-1-1.152ZM1239.38 61.72a6.54 6.54 0 0 1-1.68-.572c.07.039.17.07.25.125-.66-.328-1.27-.755-1.85-1.22-.19-.155-.54-.211-.79-.167-.26.052-.56.235-.7.457-.14.237-.23.513-.18.79.07.293.23.502.46.696 1.12.884 2.37 1.615 3.78 1.901.3.064.54.08.82-.056.23-.113.47-.365.54-.611.09-.269.09-.576-.05-.815-.1-.216-.32-.471-.6-.527ZM1264.77 91.334c-1.84-.782-3.6-1.778-5.58-2.206-.3-.064-.54-.08-.82.056-.23.113-.48.365-.55.611-.16.499.07 1.246.66 1.358 1.99.405 3.74 1.424 5.58 2.206.52.226 1.23-.138 1.37-.668.2-.59-.1-1.115-.66-1.357ZM1292.82 35.787c-1.29-.747-2.72-1.326-4.2-1.636-.3-.063-.54-.08-.82.056-.24.114-.48.366-.55.612-.08.268-.09.576.05.815.13.224.35.48.61.542 1.16.239 2.26.654 3.31 1.176-.08-.039-.17-.07-.26-.124.23.101.43.21.65.334.24.148.51.212.79.167.27-.052.56-.234.7-.456.3-.467.24-1.183-.28-1.486Z" fill="#D3CBCF"/><path d="M1299.89 80.438c3.34 1.068 6.72 2.075 9.94 3.442.53.22 1.2-.145 1.37-.667.2-.575-.13-1.139-.66-1.358-3.24-1.36-6.6-2.359-9.95-3.435-.55-.173-1.18.115-1.37.667-.18.545.11 1.185.67 1.35Z" fill="#D3CBCF"/><path d="M207.667 664.504c46.086-10.554 90.799-29.288 122.745-65.517 39.942-45.291 56.321-104.876 82.161-158.208 7.281-15.055 15.627-29.381 24.784-43.372 6.167-9.439 14.026-22.002 25.201-25.866a97.875 97.875 0 0 1-2.745-1.955c-.246 5.436-4.041 9.824-7.494 13.737-3.39 3.835-6.824 7.52-9.887 11.644-7.489 10.121-13.813 21.243-19.401 32.537-7.949 16.047-15.149 33.042-19.981 50.311-2.462 8.802-4.516 18.124-3.434 27.268.131 1.087 1.258 1.739 2.283 1.583 11.741-1.611 23.277-4.738 34.766-7.649 13.737-3.484 27.411-7.159 41.236-10.342 5.69-1.308 11.387-2.546 17.162-3.454 3.684-.577 7.822-1.388 11.564-.772.718.132 1.749.414 1.844.516.125.113.047-.217-.025.158-.022.059-.385 1.398-.502 1.623-.839 1.364-5.58 2.722-7.74 3.329-15.079 4.225-30.772 6.415-46.088 9.481-10.491 2.108-20.937 4.366-31.335 6.944a474.463 474.463 0 0 0-16.332 4.364c-1.571.457-3.64.728-5.008 1.628-1.561 1.063-2.941 3.164-4.12 4.637-11.487 14.066-19.474 30.936-27.838 46.93-9.319 17.85-19.812 34.73-33.774 49.352-16.384 17.108-35.831 31.138-57.296 41.07-21.011 9.698-43.372 16.015-65.062 23.854l2.581.957c-2.767-4.778-5.258-10.39-4.587-16.071.294-2.504-3.616-2.847-3.91-.344-.702 6.306 1.842 12.675 4.926 18.039.57.982 1.498 1.359 2.581.957 20.146-7.273 40.801-13.217 60.456-21.777 19.937-8.689 38.1-20.515 54.134-35.24 15.655-14.33 28.438-31.265 38.557-49.925 9.051-16.677 17.019-34.124 27.963-49.697 2.31-3.264 5.159-8.339 8.946-9.916 5.314-2.184 11.47-3.219 17.035-4.64 10.819-2.723 21.745-5.105 32.693-7.278 15.895-3.186 32.347-5.262 47.879-9.99 2.823-.864 7.227-1.944 8.733-4.837.922-1.768 1.568-4.41.043-6.147-1.801-2.074-5.277-2.057-7.765-2.007-4.777.105-9.519.927-14.184 1.811-27.251 5.107-53.653 14.047-80.871 19.335-2.442.468-4.903.896-7.371 1.254.774.521 1.508 1.061 2.282 1.583-.977-8.436.986-17.154 3.245-25.228 2.574-9.195 5.951-18.127 9.581-26.931 8.026-19.402 17.125-38.641 29.717-55.513 6.032-8.081 17.204-15.899 17.697-26.771.084-1.577-1.362-2.447-2.745-1.955-9.422 3.274-16.414 12.507-22.04 20.304-7.725 10.67-14.671 22.03-20.991 33.59-14.386 26.39-25.254 54.453-37.058 82.068-12.084 28.282-25.496 55.737-43.769 80.553-14.399 19.585-32.874 35.851-53.919 47.982-23.632 13.618-49.732 22.1-76.204 28.167-2.434.538-1.795 4.393.681 3.836Z" fill="#DBD0D3"/><path d="M423.346 499.843c-.738-15.382 7.262-30.036 17.368-41.097 10.434-11.408 24.591-20.799 40.001-23.395 8.188-1.387 16.192-.296 23.835 2.939 9.799 4.168 18.496 9.602 29.556 8.208 9.866-1.234 19.158-5.059 28.854-7.093 7.411-1.541 15.156-1.551 22.524.175 13.497 3.193 25.369 12.484 29.224 26.207 4.57 16.298-1.238 34.848-16.211 43.468-6.87 3.952-14.646 6.027-22.398 7.408-8.001 1.423-16.332 1.484-23.974 4.547-14.218 5.684-20.19 19.818-31.337 29.186-15.654 13.158-40.12 12.464-58.214 5.557-9.589-3.655-19.019-9.629-24.68-18.393-5.623-8.683-7.46-19.212-12.428-28.222-1.222-2.195-4.794-.571-3.542 1.634 4.615 8.344 6.555 17.873 11.221 26.168 4.703 8.375 12.057 14.551 20.451 19.002 16.651 8.818 37.359 11.1 55.328 5.199 8.123-2.651 14.749-7.565 20.404-13.91 5.202-5.843 9.504-12.59 15.646-17.549 7.66-6.172 16.479-7.191 25.862-8.47 8.368-1.153 16.804-2.849 24.577-6.266 16.219-7.12 25.021-22.047 24.617-39.682-.353-15.071-8.526-28.217-21.762-35.267-15.045-8.021-31.006-6.366-46.799-1.836-5.521 1.572-11.074 3.232-16.758 4.073-6.669.979-12.581-.442-18.677-3.171-9.14-4.057-17.72-8.544-27.982-8.495-15.906.067-31.152 7.983-42.963 18.244-11.965 10.405-21.905 24.441-24.895 40.249-.712 3.723-.889 7.442-.711 11.193.138 2.597 4.005 1.886 3.863-.611Z" fill="#DBD0D3"/><path d="M444.31 497.027c4.955-19.133 22.503-32.628 36.77-44.926 1.908-1.637-.561-4.697-2.48-3.03-14.747 12.691-32.82 26.794-37.957 46.597-.628 2.413 3.028 3.802 3.667 1.359ZM509.773 486.854c27.43-8.022 57.444-2.76 83.742-15.289 2.276-1.099.655-4.648-1.621-3.549-25.947 12.392-55.712 7.088-82.802 15.002-2.379.659-1.75 4.543.681 3.836Z" fill="#DBD0D3"/><path d="M512.469 482.461c3.802-16.379 22.293-21.35 36.507-24.59 2.446-.567 1.806-4.422-.669-3.866-15.532 3.556-35.377 9.298-39.505 27.097-.569 2.435 3.087 3.824 3.667 1.359ZM402.629 456.355c-5.937-5.316-8.933-13.528-10.923-21.032-2.027-7.585-3.238-15.571-3.364-23.422-.163-7.933.469-15.939 1.71-23.787 1.193-7.631 3.034-15.658 7.358-22.195 3.697-5.564 8.151-8.937 14.854-9.468 6.256-.495 12.636.295 18.765-1.386 11.638-3.223 17.286-13.692 21.898-23.974 5.643-12.614 11.289-25.328 25.349-30.133 13.587-4.611 29.034-2.537 41.208 4.856 11.786 7.182 21.421 20.166 21.702 34.44.231 11.441-8.338 18.716-16.201 25.617-8.813 7.754-16.616 16.385-16.185 28.906.282 7.34 3.024 13.984 5.624 20.743 1.018 2.655 2.217 5.812 1.099 8.648-1.667 4.138-6.955 6.433-10.64 8.182-2.265 1.07-.655 4.648 1.621 3.549 5.577-2.623 12.847-6.394 13.375-13.4.421-5.907-3.411-11.682-5.125-17.141-2.153-6.794-3.08-14.105-.313-20.851 2.174-5.324 6.299-9.523 10.481-13.333 8.055-7.332 17.724-14.334 19.772-25.801 2.403-13.413-5.254-27.774-14.794-36.603-10.576-9.815-25.225-14.943-39.613-14.113-15.033.86-27.192 8.011-34.53 21.236-6.061 10.952-9.215 26.934-20.995 33.421-11.517 6.316-26.219-1.009-36.257 8.971-6.07 6.025-9.112 14.142-10.978 22.328-2.218 9.763-3.141 19.906-3.079 29.911a100.994 100.994 0 0 0 3.742 26.544c2.31 8.259 5.687 16.612 12.183 22.403 1.851 1.758 4.11-1.458 2.256-3.116Z" fill="#DBD0D3"/><path d="M501.296 329.59c.859 33.782-24.546 67.846-59.372 70.347-2.502.178-1.833 4.044.669 3.866 36.405-2.619 63.527-38.526 62.595-73.91-.054-2.465-3.953-2.839-3.892-.303ZM481.18 327.962c-4.543 14.596-11.794 28.49-21.007 40.652-1.515 2.018 1.645 4.294 3.19 2.288 9.439-12.413 16.891-26.668 21.524-41.599.686-2.392-2.981-3.752-3.707-1.341ZM428.259 363.887c-2.59 5.639-3.039 12.071-2.636 18.184.382 5.903 1.705 12.054 4.587 17.243 1.222 2.194 4.764.559 3.542-1.635-2.657-4.804-3.833-10.365-4.249-15.812-.432-5.587.077-11.461 2.423-16.621 1.06-2.32-2.618-3.65-3.667-1.359ZM402.595 377.856c-1.298 9.535-1.339 19.368.037 28.889 1.301 9.091 3.989 18.763 10.388 25.624 1.719 1.843 4.747-.653 3.027-2.496-6.112-6.553-8.458-15.797-9.645-24.478-1.236-9-1.116-18.234.085-27.235.352-2.483-3.558-2.826-3.892-.304ZM491.003 410.926c-8.26 7.792-19.026 12.712-29.995 15.212-10.271 2.323-21.59 2.885-31.495-1.088-2.325-.929-3.689 2.753-1.364 3.682 10.539 4.241 22.628 3.764 33.557 1.282 11.618-2.628 23.046-7.805 31.807-16.048 1.801-1.71-.668-4.769-2.51-3.04Z" fill="#DBD0D3"/><path d="M467.631 408.628c-6.609 4.418-10.321 11.282-13.846 18.183-.489.958.262 2.174 1.142 2.5 1.085.402 2.047-.213 2.495-1.152 3.238-6.304 6.658-12.472 12.66-16.512.881-.578.911-2.007.293-2.772-.712-.867-1.852-.854-2.744-.247ZM481.314 355.145c-.003 8.741-.86 17.535.078 26.257.27 2.512 4.126 1.831 3.856-.681-.89-8.403-.035-16.829-.042-25.273-.003-1.073-.654-2.017-1.779-2.133-.978-.061-2.115.757-2.113 1.83ZM460.42 334.639l5.692 25.424c.559 2.452 4.404 1.8 3.856-.681l-5.692-25.424c-.53-2.441-4.404-1.8-3.856.681Z" fill="#DBD0D3"/></g></svg>