<svg width="1920" height="898" fill="none" xmlns="http://www.w3.org/2000/svg"><mask id="a" style="mask-type:alpha" maskUnits="userSpaceOnUse" x="0" y="0" width="1920" height="898"><path fill="#E3F1E9" d="M0 0h1920v898H0z"/></mask><g mask="url(#a)"><path d="M210.521 169.44c-10.722-3.69-24.011-10.262-24.131-23.406-.069-8.92 5.05-17.148 7.508-25.517 4.726-16.1-1.38-33.734-11.667-46.312-10.558-12.925-26.032-22.05-42.537-24.795-8.107-1.361-16.487-1.127-24.436.989-7.982 2.117-15.614 6.068-22.67 10.309-15.703 9.471-29.652 22.158-40.906 36.62-11.052 14.214-19.992 30.724-23.32 48.577-1.522 8.242-1.868 16.868-.394 25.16 1.786 9.967 6.688 19.154 13.116 26.883 13.157 15.806 32.806 26.369 52.703 30.917 19.847 4.5 40.25-.652 54.641-15.279 7.517-7.64 12.534-17.03 17.404-26.464 2.474-4.774 5.407-9.871 10.825-11.631 5.338-1.741 10.832-.038 15.773 2.088 4.252 1.856 8.291 4.173 12.542 5.996.755.333 1.477.099 1.941-.596 2.054-3.19 4.506-6.07 5.784-9.706.594-1.735-2.195-2.375-2.789-.639-1.158 3.34-3.631 6.074-5.514 9.017.657-.199 1.283-.397 1.94-.596-7.927-3.391-15.766-9.149-24.736-9.122-11.155.048-15.751 8.922-20.221 17.696-4.776 9.333-10.503 18.308-18.495 25.251-7.63 6.623-17.08 10.972-27.094 12.279-20.513 2.694-42.47-6.111-58.75-18.19-8.321-6.179-15.685-13.814-20.683-22.934-4.671-8.53-6.648-17.891-6.45-27.597.349-17.823 7.536-34.974 17.129-49.74C57.091 93.238 70.3 79.635 85.282 68.924c13.416-9.577 28.925-17.94 45.828-17.492 16.839.451 33.245 8.316 44.986 20.248 11.39 11.604 19.353 29.065 15.643 45.554-1.89 8.432-6.59 16.047-7.941 24.64-1.455 9.373 3.003 17.797 10.667 23.139 4.668 3.252 9.981 5.382 15.333 7.203 1.833.622 2.458-2.183.723-2.776Z" fill="#E1D4DB"/><path d="M200.642 170.435c-6.077-2.753-12.414-4.996-18.233-8.292-2.835-1.594-5.518-3.484-7.825-5.807-2.576-2.638-4.297-5.887-6.034-9.119-5.421-10.239-8.304-21.644-14.395-31.538-11.377-18.437-32.705-29.886-53.996-31.879-11.887-1.11-23.906.827-34.62 6.188-1.658.83-.14 3.26 1.502 2.446 19.37-9.67 42.928-7.182 61.484 3.14 9.871 5.499 18.423 13.307 24.106 23.133 5.666 9.778 8.491 20.877 13.902 30.793 3.333 6.112 7.235 10.781 13.244 14.443 6.14 3.723 12.999 6.079 19.519 9.029 1.676.756 3.038-1.765 1.346-2.537ZM168.208 162.158c-32.933-5.103-68.055-5.636-98.333-21.09-8.787-4.481-16.788-10.233-23.649-17.301-1.272-1.32-3.23.767-1.959 2.086 24.795 25.475 61.408 31.206 95.106 35.394 9.413 1.174 18.837 2.234 28.21 3.684 1.79.299 2.432-2.49.625-2.773Z" fill="#E1D4DB"/><path d="M151.802 144.464c-20.471-25.467-53.707-38.673-85.652-41.185-1.835-.152-1.73 2.711.089 2.847 30.809 2.419 63.369 15.242 83.115 39.809 1.13 1.437 3.578-.034 2.448-1.471ZM123.723 138.202c-13.271-1.844-25.677-7.618-36.818-14.873-1.537-1.004-2.883 1.533-1.346 2.536 11.323 7.363 24.024 13.258 37.522 15.127 1.806.25 2.479-2.541.642-2.79ZM157.578 173.815c-14.214 4.21-28.842 7.656-43.751 7.257-15.964-.447-30.674-5.84-44.76-13.034-9.824-5.014-19.824-11.011-25.68-20.653-.956-1.589-3.403-.086-2.447 1.503 5.087 8.355 13.155 14.17 21.545 18.907 7.813 4.382 16.017 8.347 24.511 11.233 14.371 4.918 29.464 5.992 44.471 3.813 9.139-1.344 18.087-3.621 26.927-6.25 1.764-.542.95-3.285-.816-2.776Z" fill="#E1D4DB"/><path d="M152.962 185.152c-10.294 11.501-23.818 19.688-39.066 22.458-17.341 3.127-34.938-.862-49.063-11.391-8.523-6.367-15.78-14.249-23.506-21.532-1.335-1.253-3.31.818-1.959 2.087 14.366 13.548 27.949 28.968 48.176 33.198 15.533 3.245 31.792 1.237 45.945-5.983 8.193-4.179 15.442-10.029 21.575-16.864 1.219-1.399-.866-3.357-2.102-1.973Z" fill="#E1D4DB"/><path d="M107.826 193.716c-10.144.274-20.35-1.926-28.405-8.39-1.428-1.152-3.387.934-1.959 2.087 8.655 6.962 19.502 9.483 30.438 9.166 1.861-.043 1.77-2.922-.074-2.863ZM133.517 169.692c-12.36-.172-24.527-2.424-36.517-5.264-1.795-.429-2.436 2.361-.641 2.789 12.219 2.898 24.645 5.174 37.232 5.339 1.862.022 1.773-2.825-.074-2.864ZM70.623 155.148c-6.341-2.907-12.6-5.768-17.3-11.092-1.225-1.369-3.184.717-1.96 2.087 4.87 5.512 11.392 8.527 17.947 11.54 1.643.757 3.005-1.764 1.313-2.535ZM66.892 122.347c-5.94-2.499-11.574-5.59-17.53-8.072-1.69-.707-3.035 1.829-1.345 2.536 5.94 2.499 11.574 5.59 17.53 8.072 1.706.691 3.052-1.813 1.345-2.536ZM179.672 134.2c-3.272-13.498-5.597-27.771-14.29-39.071-9.149-11.886-22.745-20.504-37.252-24.074-8.437-2.079-17.195-2.545-25.836-1.832-1.841.156-1.752 3.003.089 2.847 19.527-1.61 37.907 3.617 52.803 16.502 6.757 5.84 11.885 12.947 15.046 21.315 3.055 8.113 4.636 16.726 6.697 25.129.445 1.799 3.171.967 2.743-.816ZM180.501 96.04c-3.721-6.635-7.43-13.382-12.468-19.148-5.14-5.892-11.617-10.058-19.09-12.362-1.749-.543-2.39 2.246-.641 2.79 7.244 2.246 13.35 6.44 18.243 12.226 4.623 5.44 8.029 11.808 11.51 17.996.908 1.607 3.339.12 2.446-1.503ZM223.624 275.069c2.73-8.491 2.483-18.96-.548-27.332-2.091-5.763-6.876-13.27-14.129-11.662-6.352 1.417-8.995 9.047-8.895 14.825.122 6.489 1.989 13.36 5.353 18.936 1.657 2.749 3.895 5.447 6.87 6.858 3.123 1.487 6.417 1.188 9.497-.254 1.676-.782.159-3.212-1.501-2.446-11.045 5.145-16.439-13.046-17.212-20.648-.493-4.891.214-11.261 5.07-13.926 5.523-3.042 10.243 3.933 11.868 8.253 3.11 8.289 3.553 18.314.839 26.789-.561 1.734 2.228 2.374 2.788.607Z" fill="#E1D4DB"/><path d="M221.436 274.492c-3.5-5.766-5.118-12.435-6.922-18.87-.493-1.782-3.252-.949-2.743.816 1.876 6.66 3.614 13.567 7.234 19.541.94 1.573 3.403.085 2.431-1.487ZM202 282.09c-4.407-3.163-8.906-6.194-13.591-8.959-5.345-3.165-11.316-6.635-17.547-7.586-2.197-.334-4.642-.337-6.527 1.002-2.075 1.475-2.641 4.084-2.582 6.495.086 3.786 1.183 7.767 3.511 10.769 2.666 3.445 6.48 5.769 10.524 7.211 8.662 3.076 20.742 2.545 26.125-5.999.988-1.553-1.563-2.881-2.535-1.344-4.196 6.676-13.801 7.079-20.643 5.273-3.771-.997-7.456-2.823-10.167-5.651-2.444-2.545-3.585-5.877-3.904-9.348-.1-1.131-.138-2.328.201-3.423.205-.687.623-1.299 1.019-1.587 1.25-.931 3.131-.829 4.841-.511 5.553 1.005 10.797 4.012 15.613 6.805a175.351 175.351 0 0 1 11.517 7.39c.447.325.894.619 1.341.945.398.279.696.496.845.604 1.49 1.054 3.466-1.017 1.959-2.086Z" fill="#E1D4DB"/><path d="M199.79 283.407c-6.17-1.05-12.021-3.308-17.971-5.094-1.765-.527-2.407 2.262-.641 2.789 5.95 1.786 11.801 4.045 17.971 5.095 1.807.315 2.464-2.492.641-2.79ZM190.6 253.111c-1.171-7.411-2.673-15.573-7.525-21.572-2.964-3.662-7.371-7.359-12.127-8.244-2.036-.372-4.165-.11-5.739 1.333-1.81 1.661-2.28 4.234-2.401 6.57-.295 6.098 3.569 11.61 7.98 15.436 4.827 4.186 11.132 7.499 17.608 7.956 1.833.12 1.727-2.743-.089-2.847-4.723-.319-9.41-2.647-13.219-5.343-4.124-2.929-7.976-7.016-9.154-12.08-.748-3.182-.408-8.893 4.096-8.275 3.935.522 7.629 3.675 10.195 6.524 4.917 5.495 6.4 13.577 7.511 20.617.284 1.805 3.147 1.73 2.864-.075Z" fill="#E1D4DB"/><path d="M188.88 250.932c-3.904-3.665-7.383-7.716-11.286-11.38-1.335-1.253-3.31.818-1.959 2.086 3.904 3.665 7.382 7.716 11.286 11.38 1.351 1.269 3.31-.818 1.959-2.086Z" fill="#E1D4DB"/><path d="M1682.37 113.265c26.48 11.675 64.07 15.049 87.15-5.608.63-.56.53-1.545.01-2.152-5.6-6.426-14.36-9.857-22.18-12.72-9.34-3.434-18.53-5.684-28.54-5.776-9.23-.089-17.4 1.724-25.63 5.935-4.13 2.1-8.07 4.558-11.94 7.087a381.55 381.55 0 0 0-5.17 3.461c-1.2.819-2.83 1.504-3.57 2.786-.44.756-.12 1.612.55 2.055 2.93 2.025 6.24 3.235 9.32 4.932 1.71.93 3.25-1.685 1.52-2.626-3.09-1.697-6.4-2.908-9.31-4.9.18.697.37 1.393.55 2.056.5-.862 2.93-1.976 3.9-2.624 1.61-1.089 3.24-2.164 4.86-3.219 3.49-2.269 7.06-4.467 10.78-6.352 7.95-4.044 15.78-5.66 24.68-5.536 9.29.125 17.76 2.245 26.44 5.377 7.55 2.706 16.16 5.997 21.58 12.206 0-.729.01-1.424.01-2.153-11.13 9.941-26.2 13.621-40.81 13.817-14.55.199-29.36-2.803-42.7-8.684-1.75-.758-3.29 1.856-1.5 2.638Z" fill="#DBDBDB"/><path d="M1677.66 108.165c15.61-2.56 31.46-3.301 47.26-3.034 6.8.117 13.56-.095 20.37-.174 7.1-.072 14.45.077 21.19 2.625 1.82.686 2.59-2.257.77-2.943-6.5-2.436-13.6-2.755-20.45-2.734-7.3.017-14.56.308-21.87.183-16.08-.262-32.13.553-48.02 3.151-1.95.328-1.15 3.257.75 2.926Z" fill="#DBDBDB"/><path d="M1758.13 107.775c-16.3 3.454-32.86 7.282-49.63 5.641-1.94-.193-1.92 2.842.01 3.034 17.01 1.667 33.86-2.221 50.39-5.737 1.91-.406 1.13-3.324-.77-2.938ZM1734.01 95.927c-9.56-1.065-18.94.185-28.38 1.627-1.93.286-1.13 3.216.78 2.918 9.22-1.402 18.33-2.56 27.63-1.531 1.93.246 1.9-2.8-.03-3.014ZM1704.05 108.973c-4.08-.453-8.11-1.381-12.24-1.467-.83-.027-1.51.725-1.51 1.541 0 .836.71 1.499 1.54 1.506 4.13.086 8.17 1.014 12.25 1.466.82.083 1.51-.778 1.51-1.54-.03-.882-.74-1.403-1.55-1.506ZM1655.69 85.672c29-1.525 63.86-15.525 75.2-44.393.33-.817-.41-1.579-1.09-1.86-8.02-3.255-17.6-2.289-25.95-1.28-9.22 1.118-17.81 3.025-26.26 7.027-8.48 4.012-15.24 9.16-20.9 16.68-2.91 3.87-5.44 8.011-7.87 12.214-1.08 1.87-2.15 3.773-3.2 5.656-.75 1.336-1.9 2.69-1.98 4.24-.03.596.5 1.379 1.14 1.472 3.65.535 7.25.121 10.91.244 1.95.064 1.94-2.97-.02-3.034-3.37-.128-6.77.32-10.12-.132.38.501.75.97 1.14 1.471.06-.975 1.86-3.27 2.45-4.299 1-1.777 2-3.554 3.04-5.307 2.2-3.77 4.51-7.48 7.15-10.974 5.41-7.187 12.1-11.98 20.2-15.765 8.09-3.764 16.37-5.483 25.18-6.507 7.87-.917 16.81-1.78 24.33 1.271l-1.09-1.86c-5.46 13.882-17.32 23.93-30.27 30.684-12.91 6.724-27.47 10.674-41.98 11.43-1.97.1-1.95 3.133-.01 3.022Z" fill="#DBDBDB"/><path d="M1648.85 83.433c13.17-9.6 27.35-17.606 42.02-24.658 6.05-2.898 11.89-6.166 17.84-9.232 5.98-3.076 12.31-6.086 19.07-6.81 1.91-.21 1.92-3.232-.02-3.034-13.27 1.419-24.63 9.878-36.38 15.475-15.37 7.293-30.27 15.582-44.03 25.625-1.56 1.145-.06 3.78 1.5 2.634Z" fill="#DBDBDB"/><path d="M1720.68 46.676c-12.87 10.336-25.84 21.199-41.38 27.242-1.81.696-1.04 3.634.78 2.917 16.08-6.239 29.42-17.307 42.74-27.996 1.52-1.224-.64-3.366-2.14-2.163ZM1694.16 46.807c-9.03 3.359-16.84 8.629-24.64 14.182-1.58 1.133-.07 3.768 1.51 2.635 7.56-5.383 15.15-10.612 23.92-13.9 1.82-.683 1.04-3.6-.79-2.917ZM1673.31 71.948c-3.97 1.49-8.1 2.524-11.94 4.369-.7.349-.97 1.398-.58 2.074.47.746 1.32.927 2.08.582a28.59 28.59 0 0 1 2.57-1.117c.97-.366 1.95-.698 2.93-1.03 1.91-.636 3.81-1.217 5.7-1.918.75-.27 1.35-1.017 1.07-1.85-.18-.75-1.02-1.398-1.83-1.11ZM1964.85-48c17.13 25.814 30.43 54.391 43.65 82.374 5.75 12.165 11.08 24.61 15.26 37.427 3.86 11.934 7.15 24.697 6.61 37.323-.26 6.015-1.11 15.053-7.67 17.662-4.9 1.947-10.94-.028-15.73-1.418-8.48-2.484-22.42-8.692-28.29 1.522-3.18 5.553-2.5 12.358-1.28 18.4 1.66 8.162 4.47 16.043 6.63 24.037 2.09 7.761 4.27 16.583 2.11 24.562-2.21 8.09-10.16 13.564-18.46 13.627-9.55.055-18.23-6.483-25.6-11.841-6.95-5.08-13.99-11.098-22.32-13.675-8.52-2.615-15.97 1.073-22.19 6.843-8.22 7.594-14.23 17.296-20.97 26.153-6.77 8.922-13.94 16.338-24.17 21.238-7.88 3.772-21.04 8.376-27.95.452-7.48-8.594-3.81-23.426-1.01-33.163 3.59-12.48 8.8-24.469 13.62-36.485 1.92-4.79 3.79-9.589 5.41-14.462.44-1.339-.97-2.537-2.19-2.49-8.62.361-17.45-.914-25.81-2.99-8.18-2.038-18.32-5.218-23.67-12.251-6.28-8.26.57-18.084 7.33-23.529 8.81-7.139 19.65-11.48 29.64-16.668 10.16-5.253 21.6-11.77 25.85-23.08.41-1.079.13-2.222-.99-2.807-11.38-6.107-23.97-10.596-34.15-18.713-3.86-3.065-8.39-7.422-8.02-12.787.52-7.605 9.5-13.163 15.38-16.367 10.1-5.503 21.35-8.144 32.37-11.073 7.76-2.08 19.83-3.132 22.28-12.673.56-2.186-.29-3.273-1.59-4.861-2.25-2.816-1.31-6.545-1.25-10.013 0-1.859-.4-4.815.66-6.49 1.15-1.897 4.55-2.598 6.49-3.25 12.14-4.204 24.75-6.744 37.16-10.12 6.88-1.893 13.98-3.09 20.92-4.825 7.4-1.838 14.76-3.853 22.11-5.867 2.59-.718 1.27-4.678-1.33-3.988-13.21 3.628-26.47 7.006-39.86 9.946-6.37 1.39-12.65 3.33-18.97 4.851-6.31 1.521-12.64 3.089-18.81 5.195-4.51 1.52-10.9 2.808-12.18 8.183-.64 2.725-.35 5.756-.42 8.545-.05 3.421-.69 6.871 1.52 9.751.4.54 1.5 1.217 1.52 1.85.12 2.537-4.48 5.656-6.33 6.327-5.3 1.966-11.23 2.985-16.71 4.43-11.72 3.079-23.59 6.371-33.91 12.99-5.57 3.557-11.82 8.908-13.09 15.762-.96 5.198 1.5 9.965 4.94 13.718 10.3 11.26 26.24 16.294 39.38 23.283-.35-.938-.65-1.868-.99-2.806-4.37 11.671-17.11 17.763-27.55 23.007-10.66 5.392-22.61 10.237-30.95 19.114-5.85 6.253-9.84 15.488-5.18 23.545 4.53 7.862 14.21 11.795 22.45 14.354 10.15 3.18 21.25 4.956 31.9 4.491-.73-.846-1.44-1.663-2.19-2.49-3.99 12.062-9.37 23.605-13.83 35.5-4.09 10.956-8.43 22.73-8.46 34.565-.01 9.688 3.36 20.219 13.78 22.73 9.66 2.334 20.3-2.073 28.57-6.757 9.96-5.605 16.88-14.063 23.59-23.143 6.64-8.996 13.03-19.638 22.4-26.061 8.62-5.92 16.95-2.255 24.84 3.037 8.21 5.525 15.74 12.268 24.71 16.593 8.27 3.991 17.26 4.838 25.47.238 6.96-3.883 10.84-10.673 11.48-18.521 1.41-17.434-8.56-33.193-10.29-50.187-.51-4.862-.09-12.319 5.62-13.96 5.05-1.436 11.22 1.096 15.98 2.552 10.38 3.18 24.27 7.128 29.69-5.688 3.96-9.384 2.89-20.884 1.17-30.626-2.35-13.47-6.8-26.51-11.95-39.113-5-12.305-10.79-24.284-16.8-36.161-7.57-15.064-14.67-30.399-22.84-45.146-4.14-7.472-8.54-14.776-13.29-21.884-1.28-2.332-4.76-.005-3.25 2.253Z" fill="#DBDBDB"/><path d="M1962.65-52.376c-8.22 36.787-25.96 70.784-42.15 104.51-8.48 17.645-16.7 35.438-25.47 52.952-9.25 18.482-18.67 36.88-27.62 55.52-4.89 10.166-9.63 20.435-14.11 30.805a560.503 560.503 0 0 0-6.47 15.579c-2.16 5.394-3.6 10.955-5.71 16.358-.96 2.493 2.78 4.349 3.76 1.838 1.71-4.446 2.84-9.077 4.57-13.494a558.31 558.31 0 0 1 5.78-14.193 755.86 755.86 0 0 1 12.61-28.061c8.92-18.909 18.42-37.559 27.78-56.236 9.12-18.193 17.79-36.572 26.56-54.933 8.19-17.17 16.65-34.238 24.34-51.677 8.25-18.778 15.72-38.049 20.19-58.135.65-2.65-3.47-3.446-4.06-.833Z" fill="#DBDBDB"/><path d="M1885.35 187.859a442.037 442.037 0 0 1-2.33-23.325c-.67-8.832-1.28-17.822-.56-26.646.16-2.045-2.11-3.391-3.64-1.763-10.15 10.738-21.91 19.804-31.87 30.7-1.82 1.982 1.35 4.74 3.17 2.758 9.97-10.896 21.72-19.961 31.87-30.699-1.21-.604-2.44-1.188-3.63-1.764-.75 9.01-.24 18.102.45 27.083.58 7.995 1.37 15.981 2.37 23.939.32 2.649 4.5 2.394 4.17-.283Z" fill="#DBDBDB"/><path d="M1936.41 171.275c-18.09-25.496-23.51-55.791-28.28-86.031-.18-1.171-1.42-2.481-2.75-1.876-20.17 9.492-40.76 18.007-61 27.341-2.44 1.109-1.13 5.115 1.34 3.987 20.24-9.333 40.82-17.849 61-27.34-.91-.641-1.83-1.235-2.75-1.876 4.91 30.918 10.46 62.013 28.98 88.104 1.52 2.211 5.02-.088 3.46-2.309Z" fill="#DBDBDB"/><path d="M1964.52 110.827c-16.49-22.931-23.83-51.216-30.85-78.182-.34-1.348-2.09-1.792-3.14-1.085-18.36 12.028-40.48 16.566-58.83 28.548-2.25 1.461.06 4.965 2.33 3.484 18.33-12.01 40.47-16.52 58.82-28.547-1.04-.353-2.1-.733-3.14-1.085 7.14 27.328 14.63 55.957 31.33 79.195 1.57 2.174 5.06-.154 3.48-2.328Z" fill="#DBDBDB"/><path d="M1984.23 62.045c-8.93-25.485-21.16-49.573-31.09-74.677-.38-.994-1.57-1.811-2.66-1.327-19.02 8.32-40.67 7.343-59.35 16.722-2.42 1.21-.06 4.677 2.33 3.485 18.28-9.193 39.68-8.05 58.34-16.247-.9-.446-1.76-.882-2.66-1.327 9.93 25.056 22.15 49.19 31.09 74.676.89 2.547 4.88 1.214 4-1.305Z" fill="#DBDBDB"/><path d="M885.317 122.83c-11.233-8.499-24.712-16.261-39.013-17.311-13.564-1.005-25.063 5.876-31.61 17.718-5.962 10.777-8.181 23.629-9.049 35.823-.968 13.632-.218 27.781 3.326 41.055 2.526 9.392 6.546 19.455 15.672 24.131 7.964 4.096 17.314 2.862 25.492.25 9.971-3.172 19.194-8.553 27.796-14.433 8.086-5.489 16.391-11.557 23.108-18.683 8.646-9.166 13.563-21.269 10.352-33.916-3.699-14.571-14.959-24.556-25.212-34.725-1.38-1.364-3.738.547-2.349 1.934 8.718 8.632 18.254 16.899 22.992 28.568 4.097 10.056 2.997 20.721-2.958 29.728-5.445 8.191-13.7 14.37-21.506 20.189-7.615 5.653-15.658 10.881-24.272 14.893-7.796 3.645-16.754 6.766-25.507 5.538-9.043-1.285-14.731-7.952-18.034-16.113-4.592-11.281-6.053-23.933-6.234-35.98-.187-12.473 1.022-25.329 4.94-37.173 4.352-13.19 13.435-24.88 28.185-25.798 15.261-.959 30.315 7.893 42.097 16.789 1.593 1.189 3.355-1.285 1.784-2.484Z" fill="#D3CBCF"/><path d="M886.201 122.729c-2.702-2.54-5.165-5.615-5.754-9.368-.485-3.103.443-6.195 1.877-8.925 3.363-6.375 8.943-11.413 13.634-16.776 2.447-2.78 4.812-5.685 6.394-9.096-.958-.241-1.937-.473-2.917-.704-3.07 15.106-.879 34.795-15.745 44.064-1.638 1.027.289 3.378 1.937 2.374 15.691-9.799 13.583-30.194 16.826-46.1.365-1.797-2.249-2.181-2.926-.727-3.054 6.532-9.068 11.55-13.682 16.905-4.456 5.177-9.264 11.584-8.479 18.863.492 4.546 3.272 8.39 6.497 11.446 1.414 1.322 3.772-.589 2.338-1.956Z" fill="#D3CBCF"/><path d="M887.766 123.797c8.468-7.427 19.671-13.13 31.178-10.43l-1.077-2.41c-3.234 5.06-8.716 8.474-14.203 10.632-5.486 2.159-12.045 3.404-17.751 1.269-1.842-.676-2.911 2.158-1.069 2.834 6.338 2.361 13.481 1.176 19.637-1.148 6.102-2.326 12.287-6.188 15.847-11.823.65-1.04.053-2.138-1.077-2.409-12.25-2.877-24.424 3.207-33.432 11.089-1.454 1.319.483 3.693 1.947 2.396Z" fill="#D3CBCF"/><path d="M884.975 122.662c-16.854-7.298-23.254-27.97-14.913-43.934-.864.146-1.728.291-2.58.404 2.808 3.136 5.933 5.969 8.72 9.114 2.652 2.964 5.428 6.382 5.752 10.493.161 1.963 3.135 1.49 3.007-.46-.682-8.771-9.742-15.082-15.141-21.102-.833-.913-2.051-.61-2.581.404-9.119 17.49-1.564 39.974 16.679 47.883 1.794.804 2.863-2.03 1.057-2.802ZM840.616 115.719c-1.69 2.04-2.219 4.659-2.819 7.176-.079.357.118.858.346 1.131.228.272.631.521 1.011.538.412.03.828-.048 1.122-.341.326-.279.448-.601.529-1.013-.014.087-.104.422 0 0 .015-.086.051-.183.065-.27.039-.151.068-.324.106-.475.078-.303.145-.627.244-.939.153-.55.305-1.1.489-1.638.076-.248.183-.483.29-.718.058-.107.107-.236.166-.342a.605.605 0 0 1 .083-.171c.129-.245-.188.352-.059.106.269-.468.557-.891.878-1.302.502-.6.296-1.713-.371-2.137-.7-.437-1.554-.269-2.08.395ZM866.233 130.504c-.339 1.437-.926 2.797-1.587 4.11-.047.074-.071.139-.117.213.105-.181.058-.107-.012.032-.083.171-.176.32-.259.49-.176.32-.374.649-.559.947-.396.658-.814 1.327-1.232 1.996-.418.669-.371 1.665.371 2.136.645.435 1.658.384 2.122-.359 1.65-2.665 3.378-5.392 4.121-8.482.103-.421.139-.758-.041-1.159-.15-.335-.494-.69-.837-.804-.709-.219-1.774.07-1.97.88ZM893.918 153.95l-.069.914c-.017.142-.033.283-.072.434-.014.087-.039.151-.053.238-.002.054-.077.302-.012.032s-.01-.022-.012.032c-.015.087-.039.151-.053.238-.039.151-.1.312-.138.463-.088.28-.207.548-.326.815-.071.139-.12.268-.19.407-.117.213 0 0 .036-.097-.046.074-.071.139-.117.213-.151.255-.325.52-.499.785-.173.265-.379.518-.562.76-.125.137-.228.263-.353.399-.091.094-.292.238.022-.01-.079.062-.125.136-.204.198-.294.292-.502.599-.529 1.013-.047.37.086.845.346 1.131.511.548 1.532.814 2.143.22 1.11-1.139 2.04-2.385 2.717-3.839.583-1.251.898-2.623.953-3.986.043-.796-.489-1.629-1.345-1.702-.791-.047-1.638.492-1.683 1.342ZM845.305 140.047c-1.072 2.353-2.159 4.793-2.275 7.442-.043.795.489 1.629 1.344 1.701.769.058 1.639-.491 1.684-1.341.014-.622.114-1.229.237-1.846.002-.055.026-.119.05-.184-.059.402-.038.152-.024.065l.116-.454c.077-.302.187-.592.274-.872.405-1.171.917-2.284 1.429-3.396.343-.716-.138-1.732-.878-1.963-.825-.301-1.589.067-1.957.848ZM868.158 156.309c-.535 2.247-1.576 4.372-2.551 6.468-.334.738.137 1.732.878 1.964.815.278 1.601-.1 1.947-.871.953-2.086 1.994-4.211 2.551-6.468.104-.421.139-.758-.04-1.16-.15-.334-.495-.689-.838-.804-.375-.126-.809-.147-1.153.034-.332.148-.702.448-.794.837ZM824.756 150.143c-.953 3.986-2.357 7.853-3.309 11.84-.183.778.041 1.695.878 1.963.696.251 1.761-.037 1.947-.87.952-3.986 2.356-7.854 3.309-11.84.183-.778-.041-1.695-.878-1.964-.686-.228-1.752.061-1.947.871ZM847.518 166.794c-.475 2.086-.518 4.247-.992 6.333-.08.357.118.858.346 1.131.228.272.631.521 1.01.538.412.03.828-.048 1.122-.341.327-.279.448-.601.53-1.013.474-2.086.517-4.247.992-6.333.079-.357-.118-.857-.346-1.13-.228-.273-.631-.521-1.011-.539-.412-.03-.828.049-1.122.341-.316.302-.448.602-.529 1.013ZM878.792 179.8c-1.637 2.633-3.052 5.407-4.912 7.899-.482.644-.307 1.689.371 2.136.71.459 1.616.349 2.122-.36 1.85-2.513 3.275-5.265 4.912-7.898.418-.668.371-1.665-.371-2.136-.657-.402-1.67-.351-2.122.359ZM832.539 178.898c-.641 2.722-1.754 5.281-2.417 8.014-.104.421-.139.758.041 1.16.149.335.494.689.837.804.696.251 1.762-.038 1.947-.871.641-2.723 1.754-5.282 2.417-8.014.104-.422.139-.759-.04-1.16-.15-.335-.494-.69-.838-.804-.686-.229-1.751.06-1.947.871ZM857.922 188.701c-1.189 2.567-2.324 5.135-3.375 7.774-.28.74.105 1.72.878 1.963.782.266 1.633-.087 1.947-.87 1.028-2.629 2.185-5.207 3.375-7.773.333-.739-.138-1.733-.878-1.964-.815-.278-1.601.1-1.947.87ZM834.086 204.095a976.834 976.834 0 0 1-3.141 6.812c-.333.738.138 1.732.878 1.963.815.279 1.601-.1 1.947-.87 1.058-2.266 2.083-4.545 3.141-6.812.334-.738-.137-1.732-.878-1.963-.792-.289-1.579.09-1.947.87ZM819.55 195.332c-.014.622-.115 1.229-.237 1.846-.002.055-.027.119-.051.184.06-.402.039-.151.024-.065l-.116.454c-.077.302-.186.592-.273.872-.406 1.172-.918 2.284-1.429 3.396-.334.738.137 1.732.878 1.964.814.278 1.601-.1 1.947-.871 1.072-2.353 2.158-4.793 2.275-7.442.042-.796-.489-1.629-1.345-1.701-.781-.026-1.651.523-1.673 1.363ZM856.327 206.04a9.487 9.487 0 0 1-.887 2.351c.058-.107.107-.236.188-.352-.493.916-1.125 1.761-1.808 2.548-.228.263-.324.761-.273 1.113.061.374.305.8.612 1.011.329.201.714.351 1.108.282.416-.079.718-.295 1.002-.609 1.3-1.545 2.39-3.264 2.861-5.241.103-.421.139-.758-.041-1.16-.15-.335-.494-.689-.837-.804-.375-.127-.809-.147-1.153.034-.31.138-.681.438-.772.827ZM899.309 171.593c-1.189 2.566-2.677 4.998-3.375 7.773-.104.421-.139.758.041 1.16.149.334.494.689.837.804.696.251 1.762-.038 1.947-.871.665-2.787 2.186-5.207 3.375-7.773.343-.716-.138-1.733-.878-1.964-.825-.3-1.579.09-1.947.871ZM822.227 129.4c-1.114 1.783-1.998 3.785-2.505 5.859-.104.421-.139.758.04 1.159.15.335.494.69.838.804.375.127.809.147 1.153-.033.322-.171.692-.471.794-.837.391-1.621 1.028-3.164 1.814-4.613-.059.107-.107.235-.188.352.154-.31.317-.597.503-.894.22-.34.322-.706.273-1.113-.061-.374-.305-.8-.612-1.011-.645-.435-1.658-.384-2.11.327Z" fill="#D3CBCF"/><path d="M885.576 121.51c1.663-4.653 3.243-9.375 5.324-13.866.334-.738-.149-1.7-.878-1.963-.802-.311-1.613.132-1.947.87-2.071 4.513-3.638 9.203-5.314 13.888-.27.763.107 1.665.878 1.963.76.276 1.677-.107 1.937-.892Z" fill="#D3CBCF"/><path d="M1738.81 887.129c21.44-20.73 43.36-43.133 55.29-70.932 5.8-13.53 7.65-27.665 8.33-42.252.69-15.132-.32-31.598 5.39-45.88 3.2-7.991 8.13-15.153 13.92-21.5 2.95-3.257 6.11-6.282 9.45-9.151 1.71-1.48 3.48-2.895 5.25-4.284 1.37-1.065 2.95-2.999 4.56-3.558 2.2-.78 1.05-4.202-1.15-3.422-2.6.911-3.83 2.662-5.9 4.35-2.91 2.402-5.87 4.752-8.64 7.322-5.53 5.115-10.54 10.812-14.68 17.105-3.93 6.008-6.96 12.624-8.67 19.64-1.78 7.276-2.1 14.952-2.47 22.408-.75 15.651-.37 31.677-4.72 46.865-4.44 15.434-13.15 29.551-22.88 42.19-10.73 13.924-23.15 26.488-35.77 38.69-1.69 1.622 1.03 4.044 2.69 2.409Z" fill="#DCD3D7"/><path d="M1783.89 824.519c-16.02 6.721-34.55-8.171-44.01-19.778-4.9-5.998-9.72-13.514-10.11-21.448-.16-2.995.52-5.991 2.42-8.379 2.21-2.751 6.71-5.336 10.27-5.12 4.24.268 4.85 5.947 5.34 9.201.66 4.343.91 8.906 2.46 13.041 3.18 8.515 14.15 13.197 22.52 9.532 8.26-3.626 11.13-14.145 7.82-22.077-3.59-8.618-11.53-15.158-18.4-21.141-6.64-5.763-16.13-11.976-18.9-20.738-2.01-6.443-.69-13.329 2.37-19.219.54-1.025 2.49-5.656 4.09-5.67.09.012 1.16 2.034 1.42 2.617 3.17 7.569 3.57 16.995 9.14 23.394 5.22 5.998 15.11 7.881 19.49.187 4.46-7.849 2.31-16.625-.51-24.505-1.72-4.809-3.95-10.68-1.46-15.623 1.46-2.867 7.49-8.41 11.25-6.248 3.91 2.239 2.25 9.54 5.29 12.701 5.43 5.686 14-5.85 14.97-10.285 1.16-5.447-.53-11.177-2.12-16.374-1.86-6.041-3.87-12.158-4.51-18.498-.7-6.859.96-13.188 5.38-18.56 3.69-4.478 8.95-7.362 14.37-9.325 5.09-1.873 11.45-3.397 16.7-1.237 4.76 1.979 6.31 6.152 4.27 10.641-2.8 6.213-11.19 13.367-8.49 20.897 1.25 3.474 5.04 6.296 8.69 6.591 4.02.32 7.91-1.759 11.3-3.63 4.49-2.494 8.76-5.546 13.6-7.314 5.23-1.899 10.25-.594 15.05 1.955 9.69 5.15 16.95 16.695 10.26 27.062-6.37 9.874-18.85 8.617-28.89 11.259-10.22 2.682-27.21 16.82-13.02 25.765 5.41 3.404 11.84 5.148 17.82 7.255 5.67 1.978 12.5 4.019 16.82 8.436 3.76 3.847 2.8 10.526-1.98 13.228-5.24 2.962-12.84.376-18.11-1.213-12.57-3.734-30.13-12.701-42.76-4.778-8.21 5.143-10.65 15.778-7.99 24.709 3.02 10.149 13.16 17.789 23.71 13.395 4.9-2.028 9.08-5.65 14.24-7.03 4.82-1.289 11.29-.012 15.09 3.368 5.95 5.232.83 13.432-3.74 17.599-6.49 5.933-15.02 8.224-23.52 6.003-6.41-1.705-17.26-6.621-22.53-.08-5.91 7.319 1.24 13.989 5.91 19.196 3.13 3.498 3.88 7.205.26 10.814-3.17 3.18-8.07 3.198-12.23 2.489-8.09-1.404-16.47-5.48-22.91-10.595-1.8-1.45-4.25 1.25-2.42 2.713 6.69 5.335 15.15 9.514 23.55 11.268 7.87 1.652 18.36-.149 20.09-9.616 1.63-8.806-10.1-11.568-10.75-19.373-1-11.668 16.97-3.921 22.29-2.759 8.14 1.819 16.7-.913 23.11-6.041 5.28-4.207 10.59-11.24 8.88-18.408-1.97-8.167-12.98-11.708-20.38-10.404-5.33.94-9.63 4.238-14.36 6.641-6.16 3.119-12.68 2.27-17.26-3.249-6.83-8.291-6.26-23.319 4.28-28.335 6.84-3.236 15.29-1.067 22.2.884 7.75 2.209 15.31 5.325 23.25 6.912 5.63 1.122 12.39 1.478 16.59-3.168 3.8-4.193 4.7-10.677 1.2-15.302-3.78-4.988-10.46-7.405-16.09-9.5-6.42-2.353-13.22-4.122-19.24-7.409-4.91-2.705-6.7-6.152-2.84-10.837 3.04-3.698 7.04-6.853 11.58-8.414 5.14-1.782 10.62-2.06 15.94-3.103 10.24-1.995 19.74-8.63 20.41-19.886.63-10.114-7.06-18.832-15.67-23.115-4.36-2.173-9.36-3.659-14.24-2.591-4.84 1.056-9.19 3.809-13.38 6.29-3.68 2.182-9.06 6.272-13.65 5.214-4.85-1.084-5.86-5.634-4.03-9.552 2.99-6.473 11.55-13.834 8.3-21.701-4.33-10.511-18.71-8.278-26.99-5.054-10.66 4.147-19.96 12.209-21.35 24.178-.68 6.005.6 12.019 2.16 17.814 1.69 6.248 4.47 12.585 4.79 19.094.18 3.228-.5 6.418-2.71 8.91-.96 1.078-3.76 3.959-5.47 3.883-1.84-.076-2.05-2.993-2.4-4.497-1.27-5.327-3.35-11.186-10.11-9.597-4.67 1.107-9.24 4.561-11.14 9.023-1.96 4.528-1 9.57.4 14.12 1.48 4.783 3.92 9.396 4.1 14.44.15 3.929-.35 8.96-3.05 12.049-3.42 3.932-9.66 1.151-12.58-2.087-2.96-3.252-4.16-8.191-5.37-12.287-1.04-3.499-3.33-17.85-9.83-14.576-4.2 2.118-6.69 9.07-7.94 13.208-1.66 5.421-1.75 11.334.17 16.726 3.1 8.697 11.99 14.872 18.7 20.674 7.05 6.1 16.68 13.325 19.16 22.813 1.25 4.835-.44 10.788-4.45 13.879-4.8 3.726-11.75 2.502-16.22-1.15-7.4-6.047-4-17.306-8.06-25.12-3.91-7.581-13.92-4.082-18.8.707-4.83 4.751-5.07 11.753-3.32 17.936 4.61 16.345 20.29 31.279 35.73 37.538 7.01 2.845 14.98 4.094 22.15 1.091 2.26-.819 1.11-4.241-1.06-3.344Z" fill="#DCD3D7"/><path d="M-176.333 980.504c46.086-10.554 90.8-29.288 122.745-65.517 39.942-45.291 56.321-104.876 82.16-158.208 7.282-15.055 15.628-29.381 24.785-43.372 6.167-9.439 14.026-22.002 25.201-25.866a97.448 97.448 0 0 1-2.745-1.955c-.246 5.436-4.041 9.824-7.494 13.737-3.39 3.835-6.824 7.52-9.887 11.644-7.489 10.121-13.813 21.243-19.4 32.537-7.95 16.047-15.15 33.042-19.982 50.311-2.462 8.802-4.516 18.124-3.434 27.268.131 1.087 1.258 1.739 2.283 1.583 11.741-1.611 23.277-4.738 34.766-7.649 13.737-3.484 27.41-7.159 41.236-10.342 5.69-1.308 11.387-2.546 17.162-3.454 3.684-.577 7.822-1.388 11.564-.772.718.132 1.749.414 1.844.516.125.113.047-.217-.025.158-.022.059-.385 1.398-.502 1.623-.839 1.364-5.58 2.722-7.74 3.329-15.079 4.225-30.772 6.415-46.088 9.481-10.491 2.108-20.937 4.366-31.335 6.944a474.585 474.585 0 0 0-16.332 4.364c-1.57.457-3.64.728-5.008 1.628-1.561 1.063-2.94 3.164-4.12 4.637-11.487 14.066-19.474 30.936-27.838 46.93-9.319 17.85-19.812 34.73-33.774 49.352-16.384 17.108-35.83 31.138-57.296 41.07-21.011 9.698-43.372 16.015-65.062 23.854l2.581.957c-2.767-4.778-5.258-10.39-4.587-16.071.294-2.504-3.616-2.847-3.91-.344-.702 6.306 1.842 12.675 4.926 18.039.57.982 1.498 1.359 2.581.957 20.146-7.273 40.801-13.217 60.456-21.777 19.937-8.689 38.1-20.515 54.134-35.24 15.655-14.33 28.438-31.265 38.557-49.925 9.05-16.677 17.019-34.124 27.962-49.697 2.311-3.264 5.16-8.339 8.947-9.916 5.314-2.184 11.47-3.219 17.035-4.64 10.819-2.723 21.745-5.105 32.693-7.278 15.895-3.186 32.347-5.262 47.879-9.99 2.823-.864 7.227-1.944 8.733-4.837.922-1.768 1.568-4.41.043-6.147-1.801-2.074-5.277-2.057-7.765-2.007-4.777.105-9.519.927-14.184 1.811-27.25 5.107-53.653 14.047-80.87 19.335a165.24 165.24 0 0 1-7.372 1.254c.774.521 1.508 1.061 2.282 1.583-.977-8.436.986-17.154 3.245-25.228 2.574-9.195 5.951-18.127 9.581-26.931 8.026-19.402 17.125-38.641 29.718-55.513 6.031-8.081 17.203-15.899 17.696-26.771.084-1.577-1.362-2.447-2.745-1.955-9.422 3.274-16.414 12.507-22.04 20.304-7.725 10.67-14.671 22.03-20.991 33.59-14.386 26.39-25.254 54.453-37.058 82.068-12.084 28.282-25.496 55.737-43.77 80.553-14.398 19.585-32.873 35.851-53.918 47.982-23.632 13.618-49.732 22.1-76.204 28.167-2.434.538-1.795 4.393.681 3.836Z" fill="#D7D7D7"/><path d="M39.346 815.843c-.738-15.382 7.262-30.036 17.368-41.097 10.434-11.408 24.591-20.799 40-23.395 8.189-1.387 16.193-.296 23.836 2.939 9.799 4.168 18.496 9.602 29.556 8.208 9.866-1.234 19.158-5.059 28.854-7.093 7.411-1.541 15.156-1.551 22.524.175 13.497 3.193 25.369 12.484 29.224 26.207 4.57 16.298-1.238 34.848-16.211 43.468-6.87 3.952-14.646 6.027-22.398 7.408-8.001 1.423-16.332 1.484-23.974 4.547-14.218 5.684-20.19 19.818-31.337 29.186-15.654 13.158-40.12 12.464-58.214 5.557-9.589-3.655-19.02-9.629-24.68-18.393-5.623-8.683-7.46-19.212-12.428-28.222-1.222-2.195-4.794-.571-3.542 1.634 4.615 8.344 6.555 17.873 11.221 26.168 4.703 8.375 12.057 14.551 20.45 19.002 16.652 8.818 37.36 11.1 55.329 5.199 8.123-2.651 14.749-7.565 20.404-13.91 5.202-5.843 9.504-12.59 15.646-17.549 7.66-6.172 16.479-7.191 25.862-8.47 8.368-1.153 16.804-2.849 24.577-6.266 16.219-7.12 25.021-22.047 24.617-39.682-.353-15.071-8.526-28.217-21.762-35.267-15.045-8.021-31.006-6.366-46.799-1.836-5.521 1.572-11.074 3.232-16.758 4.073-6.669.979-12.581-.442-18.677-3.171-9.14-4.057-17.72-8.544-27.982-8.495-15.907.067-31.152 7.983-42.963 18.244-11.965 10.405-21.905 24.441-24.895 40.249-.712 3.723-.89 7.442-.711 11.193.138 2.597 4.005 1.886 3.863-.611Z" fill="#D7D7D7"/><path d="M60.31 813.027c4.956-19.133 22.502-32.628 36.77-44.926 1.908-1.637-.561-4.697-2.48-3.03-14.747 12.691-32.82 26.794-37.957 46.597-.628 2.413 3.028 3.802 3.666 1.359ZM65.512 820.684c15.92 12.5 37.491 25.419 58.299 17.89 2.387-.858.736-4.417-1.621-3.549-19.303 6.981-39.76-6.061-54.4-17.517-1.986-1.573-4.264 1.602-2.278 3.176ZM125.773 802.854c27.43-8.022 57.444-2.76 83.742-15.289 2.276-1.099.655-4.648-1.621-3.549-25.947 12.392-55.712 7.088-82.802 15.002-2.379.659-1.75 4.543.681 3.836Z" fill="#D7D7D7"/><path d="M127.683 805.171c11.464 1.569 21.627 7.546 32.356 11.456 10.7 3.899 21.555 5.041 32.314.588 2.331-.979.71-4.527-1.621-3.549-22.192 9.194-41.396-9.481-62.707-12.388-2.503-.359-2.826 3.575-.342 3.893ZM128.469 798.461c3.802-16.379 22.293-21.35 36.507-24.59 2.446-.567 1.806-4.422-.669-3.866-15.532 3.556-35.377 9.298-39.505 27.097-.569 2.435 3.087 3.824 3.667 1.359ZM118.786 771.021c-7.703 7.462-12.317 16.94-17.419 26.204-.518.947-.497 2.06.45 2.746.763.551 2.221.489 2.739-.458 4.912-8.932 9.314-18.288 16.722-25.491 1.802-1.711-.679-4.741-2.492-3.001ZM101.456 815.348c9.011 8.096 20.775 12.456 31.82 16.952 2.315.959 3.679-2.723 1.365-3.681-10.753-4.387-22.106-8.595-30.896-16.476-1.884-1.67-4.143 1.546-2.289 3.205ZM67.234 820.719c-1.69 7.078-.79 14.915 1.14 21.861 1.937 7.016 5.342 14.843 11.935 18.66 2.176 1.242 4.454-1.933 2.29-3.205-5.827-3.365-8.816-10.335-10.473-16.577-1.624-6.061-2.697-13.159-1.214-19.409.558-2.406-3.098-3.795-3.678-1.33ZM94.877 838.769c.05 9.499 2.537 20.704 11.024 26.161 2.103 1.349 4.41-1.816 2.289-3.205-7.306-4.684-9.375-14.495-9.421-22.652-.003-1.073-.654-2.018-1.779-2.133-.989-.032-2.126.786-2.113 1.829ZM18.629 772.355c-5.937-5.316-8.933-13.528-10.923-21.032-2.027-7.585-3.238-15.571-3.364-23.422-.163-7.933.47-15.939 1.71-23.787 1.193-7.631 3.034-15.658 7.358-22.195 3.698-5.564 8.151-8.938 14.854-9.468 6.256-.495 12.636.295 18.765-1.386 11.638-3.223 17.286-13.692 21.898-23.974 5.643-12.614 11.29-25.328 25.349-30.133 13.587-4.611 29.034-2.537 41.208 4.856 11.786 7.182 21.421 20.166 21.702 34.44.231 11.441-8.338 18.716-16.201 25.617-8.813 7.754-16.616 16.385-16.185 28.906.282 7.34 3.024 13.984 5.624 20.743 1.018 2.655 2.217 5.812 1.099 8.648-1.667 4.138-6.955 6.433-10.64 8.182-2.265 1.07-.655 4.648 1.621 3.549 5.577-2.623 12.847-6.394 13.375-13.4.421-5.907-3.411-11.682-5.125-17.141-2.153-6.794-3.08-14.105-.313-20.851 2.174-5.324 6.299-9.523 10.481-13.333 8.055-7.332 17.724-14.334 19.772-25.801 2.403-13.413-5.254-27.774-14.794-36.603-10.576-9.815-25.225-14.943-39.613-14.113-15.033.86-27.192 8.011-34.53 21.236-6.06 10.952-9.215 26.934-20.995 33.421-11.517 6.316-26.219-1.009-36.257 8.971-6.07 6.025-9.112 14.142-10.978 22.328-2.218 9.763-3.14 19.906-3.079 29.911a101.016 101.016 0 0 0 3.742 26.544c2.31 8.259 5.687 16.612 12.183 22.403 1.85 1.758 4.11-1.458 2.256-3.116Z" fill="#D7D7D7"/><path d="M117.296 645.59c.859 33.782-24.546 67.846-59.372 70.347-2.502.178-1.833 4.044.669 3.866 36.405-2.619 63.527-38.526 62.595-73.91-.054-2.465-3.953-2.839-3.892-.303ZM97.18 643.962c-4.543 14.596-11.794 28.49-21.007 40.652-1.515 2.018 1.645 4.294 3.19 2.288 9.439-12.413 16.89-26.668 21.524-41.599.686-2.392-2.98-3.752-3.707-1.341ZM44.26 679.887c-2.591 5.639-3.04 12.071-2.637 18.184.382 5.903 1.705 12.054 4.587 17.243 1.222 2.194 4.764.559 3.542-1.635-2.657-4.804-3.833-10.365-4.25-15.812-.431-5.587.078-11.461 2.424-16.621 1.06-2.32-2.618-3.65-3.667-1.359ZM18.595 693.856c-1.298 9.535-1.34 19.368.037 28.889 1.301 9.091 3.99 18.763 10.388 25.624 1.72 1.843 4.747-.653 3.027-2.496-6.112-6.553-8.458-15.797-9.645-24.478-1.236-9-1.116-18.234.085-27.235.352-2.483-3.557-2.826-3.892-.304ZM107.003 726.926c-8.26 7.792-19.026 12.712-29.995 15.212-10.27 2.323-21.59 2.885-31.495-1.088-2.325-.929-3.69 2.753-1.364 3.682 10.54 4.241 22.628 3.764 33.557 1.282 11.618-2.628 23.046-7.805 31.807-16.048 1.801-1.71-.668-4.769-2.51-3.04Z" fill="#D7D7D7"/><path d="M83.63 724.628c-6.608 4.418-10.32 11.282-13.845 18.183-.489.958.262 2.174 1.142 2.5 1.085.402 2.047-.213 2.495-1.152 3.238-6.304 6.658-12.472 12.66-16.512.882-.578.91-2.007.293-2.772-.713-.867-1.852-.854-2.744-.247ZM97.314 671.145c-.003 8.741-.86 17.535.078 26.257.27 2.512 4.126 1.831 3.856-.681-.89-8.403-.035-16.829-.042-25.273-.003-1.073-.654-2.017-1.779-2.133-.978-.061-2.115.757-2.113 1.83ZM76.42 650.639l5.692 25.424c.56 2.452 4.404 1.8 3.856-.681l-5.692-25.424c-.53-2.441-4.404-1.8-3.856.681Z" fill="#D7D7D7"/></g></svg>