<svg width="25" height="20" fill="none" xmlns="http://www.w3.org/2000/svg"><path d="M24.256 2.946a10.06 10.06 0 0 1-2.819.763 4.86 4.86 0 0 0 2.16-2.672c-.965.564-2.02.96-3.118 1.171a4.943 4.943 0 0 0-3.584-1.53c-2.713 0-4.908 2.163-4.908 4.83-.002.37.04.74.126 1.102A13.992 13.992 0 0 1 1.995 1.56a4.77 4.77 0 0 0-.668 2.428c0 1.674.874 3.155 2.194 4.022a4.86 4.86 0 0 1-2.232-.603v.06c0 2.343 1.694 4.292 3.937 4.735-.421.113-.856.17-1.293.17-.31 0-.618-.03-.922-.09.623 1.919 2.438 3.315 4.588 3.354a9.949 9.949 0 0 1-7.268 2 13.89 13.89 0 0 0 7.513 2.182c9.04 0 13.979-7.362 13.979-13.747 0-.21-.006-.418-.016-.623a9.892 9.892 0 0 0 2.45-2.502Z" fill="#274C5B"/></svg>